<svg width="270" height="69" viewBox="0 0 270 69" fill="none" xmlns="http://www.w3.org/2000/svg">
<g clip-path="url(#clip0_544_519)">
<path d="M8.40188 19H56.6106C56.6106 19 57.4054 24.292 56.6106 27.5C55.8158 30.708 50.7557 36.3696 50.7557 36.3696C50.7557 36.3696 55.7346 41.3165 56.6106 44.5C57.4867 47.6835 56.6106 53 56.6106 53H8.40188C8.40188 53 7.49765 47.6744 8.40188 44.5C9.30611 41.3256 14.2558 36.3696 14.2558 36.3696C14.2558 36.3696 8.40188 30.8195 8.40188 27.5C8.40188 24.1805 8.40188 19 8.40188 19Z" fill="black"/>
<rect x="27" y="28" width="5" height="10" rx="2.5" fill="white"/>
<rect x="35" y="35" width="5" height="10" rx="2.5" fill="white"/>
<path d="M79.48 19.7H73V12.8H79.48V19.7ZM79.48 53H73V23.18H79.48V53ZM91.9605 53H85.4805V23.18H91.4205V32.42H91.8405C92.7405 27.38 96.7005 22.58 104.26 22.58C112.54 22.58 116.62 28.16 116.62 35.06V53H110.14V36.8C110.14 31.22 107.62 28.4 101.44 28.4C94.9005 28.4 91.9605 31.76 91.9605 38.24V53ZM141.955 53H135.115C128.695 53 124.735 50.18 124.735 42.92V28.58H119.695V23.18H124.735V16.64H131.155V23.18H141.955V28.58H131.155V42.56C131.155 46.22 132.835 47.18 136.555 47.18H141.955V53ZM152.488 19.7H146.008V12.8H152.488V19.7ZM152.488 53H146.008V23.18H152.488V53ZM173.548 53.6C163.708 53.6 157.288 47.3 157.288 38.12C157.288 28.82 163.708 22.58 173.548 22.58C182.488 22.58 189.028 27.62 189.028 35.06V35.66H182.608V35.3C182.608 30.68 179.248 28.4 173.428 28.4C166.708 28.4 163.708 31.58 163.708 38.12C163.708 44.54 166.708 47.78 173.428 47.78C179.248 47.78 182.608 45.5 182.608 40.88V40.46H189.028V41.12C189.028 48.56 182.488 53.6 173.548 53.6ZM200.78 53H192.62V43.7H200.78V53ZM212.078 19.7H205.598V12.8H212.078V19.7ZM212.078 53H205.598V23.18H212.078V53ZM231.218 53.6C221.798 53.6 216.578 47.3 216.578 38.12C216.578 28.82 221.738 22.58 230.798 22.58C237.878 22.58 241.898 26.24 243.098 31.28H243.458V12.8H249.938V53H243.998V44.42H243.578C242.318 50.36 237.938 53.6 231.218 53.6ZM223.118 38.12C223.118 45.26 226.778 47.66 233.198 47.66C239.558 47.66 243.458 44.66 243.458 38.42V37.94C243.458 31.58 239.738 28.46 233.078 28.46C226.838 28.46 223.118 30.92 223.118 38.12Z" fill="#050505"/>
</g>
<defs>
<clipPath id="clip0_544_519">
<rect width="270" height="69" fill="white"/>
</clipPath>
</defs>
</svg>
