<svg width="245" height="69" viewBox="0 0 245 69" fill="none" xmlns="http://www.w3.org/2000/svg">
<path d="M0.40188 19H48.6106C48.6106 19 49.4054 24.292 48.6106 27.5C47.8158 30.708 42.7557 36.3696 42.7557 36.3696C42.7557 36.3696 47.7346 41.3165 48.6106 44.5C49.4867 47.6835 48.6106 53 48.6106 53H0.40188C0.40188 53 -0.50235 47.6744 0.40188 44.5C1.30611 41.3256 6.2558 36.3696 6.2558 36.3696C6.2558 36.3696 0.40188 30.8195 0.40188 27.5C0.40188 24.1805 0.40188 19 0.40188 19Z" fill="white"/>
<rect x="19" y="28" width="5" height="10" rx="2.5" fill="black"/>
<rect x="27" y="35" width="5" height="10" rx="2.5" fill="black"/>
<path d="M71.48 19.7H65V12.8H71.48V19.7ZM71.48 53H65V23.18H71.48V53ZM83.9605 53H77.4805V23.18H83.4205V32.42H83.8405C84.7405 27.38 88.7005 22.58 96.2605 22.58C104.54 22.58 108.62 28.16 108.62 35.06V53H102.14V36.8C102.14 31.22 99.6205 28.4 93.4405 28.4C86.9005 28.4 83.9605 31.76 83.9605 38.24V53ZM133.955 53H127.115C120.695 53 116.735 50.18 116.735 42.92V28.58H111.695V23.18H116.735V16.64H123.155V23.18H133.955V28.58H123.155V42.56C123.155 46.22 124.835 47.18 128.555 47.18H133.955V53ZM144.488 19.7H138.008V12.8H144.488V19.7ZM144.488 53H138.008V23.18H144.488V53ZM165.548 53.6C155.708 53.6 149.288 47.3 149.288 38.12C149.288 28.82 155.708 22.58 165.548 22.58C174.488 22.58 181.028 27.62 181.028 35.06V35.66H174.608V35.3C174.608 30.68 171.248 28.4 165.428 28.4C158.708 28.4 155.708 31.58 155.708 38.12C155.708 44.54 158.708 47.78 165.428 47.78C171.248 47.78 174.608 45.5 174.608 40.88V40.46H181.028V41.12C181.028 48.56 174.488 53.6 165.548 53.6ZM192.78 53H184.62V43.7H192.78V53ZM204.078 19.7H197.598V12.8H204.078V19.7ZM204.078 53H197.598V23.18H204.078V53ZM223.218 53.6C213.798 53.6 208.578 47.3 208.578 38.12C208.578 28.82 213.738 22.58 222.798 22.58C229.878 22.58 233.898 26.24 235.098 31.28H235.458V12.8H241.938V53H235.998V44.42H235.578C234.318 50.36 229.938 53.6 223.218 53.6ZM215.118 38.12C215.118 45.26 218.778 47.66 225.198 47.66C231.558 47.66 235.458 44.66 235.458 38.42V37.94C235.458 31.58 231.738 28.46 225.078 28.46C218.838 28.46 215.118 30.92 215.118 38.12Z" fill="white"/>
</svg>
