<svg width="1133" height="409" viewBox="0 0 1133 409" fill="none" xmlns="http://www.w3.org/2000/svg">
<path d="M653.979 397H631.299V370.2H653.979V375.6H637.299V380.84H653.379V386.2H637.299V391.6H653.979V397ZM671.61 397H664.21L655.09 376.96H661.77L667.77 391.16H668.17L674.21 376.96H680.77L671.61 397ZM692.994 397.4C686.314 397.4 681.754 394.12 681.754 387C681.754 380.6 686.274 376.56 692.874 376.56C699.434 376.56 703.794 380 703.794 386.28C703.794 387 703.714 387.52 703.634 388.2H687.314C687.474 391.28 688.914 392.6 692.794 392.6C696.354 392.6 697.594 391.68 697.594 389.96V389.56H703.594V390C703.594 394.36 699.354 397.4 692.994 397.4ZM692.754 381.24C689.194 381.24 687.674 382.44 687.394 385.04H698.034C697.874 382.4 696.274 381.24 692.754 381.24ZM712.338 397H706.338V376.96H711.898V383.12H712.258C712.778 379.76 715.178 376.56 720.418 376.56C725.898 376.56 728.498 380.08 728.498 384.52V397H722.498V386.52C722.498 383.32 721.178 381.96 717.498 381.96C713.698 381.96 712.338 383.48 712.338 386.88V397ZM745.654 397H740.694C736.014 397 733.174 394.8 733.174 389.76V381.92H730.014V376.96H733.174V373.08H739.174V376.96H745.654V381.92H739.174V389.08C739.174 391.08 739.934 391.6 742.054 391.6H745.654V397ZM767.873 397.4C758.993 397.4 753.473 391.96 753.473 383.6C753.473 375.24 758.993 369.8 767.873 369.8C776.953 369.8 782.433 375.24 782.433 383.6C782.433 391.96 776.953 397.4 767.873 397.4ZM767.873 391.64C773.753 391.64 776.033 389.56 776.033 383.6C776.033 377.64 773.753 375.56 767.873 375.56C761.993 375.56 759.833 377.64 759.833 383.6C759.833 389.56 761.993 391.64 767.873 391.64ZM791.049 397H785.049V376.96H790.609V382.28H790.969C791.529 379.04 793.649 376.56 797.689 376.56C802.169 376.56 804.009 379.64 804.009 383.56V386.88H798.009V384.8C798.009 382.6 797.129 381.64 794.689 381.64C792.009 381.64 791.049 382.88 791.049 385.4V397ZM814.982 394.96C809.022 394.96 805.582 391.4 805.582 385.76C805.582 380.16 809.222 376.56 815.222 376.56C819.302 376.56 822.222 378.32 822.862 381.8H823.182V376.96H828.782V394.08C828.782 401.08 824.542 404.2 817.382 404.2C810.902 404.2 806.822 401.32 806.822 396.28H812.822C812.822 398.52 813.702 399.2 817.782 399.2C821.622 399.2 822.782 398.4 822.782 394.48V389.96H822.462C821.822 392.92 819.462 394.96 814.982 394.96ZM811.622 385.76C811.622 388.72 813.302 389.8 817.062 389.8C820.902 389.8 822.782 388.72 822.782 385.96V385.52C822.782 382.8 820.862 381.76 817.142 381.76C813.302 381.76 811.622 382.8 811.622 385.76ZM838.123 397.4C833.803 397.4 831.203 395.4 831.203 392.04C831.203 389.08 833.403 387.24 837.683 386.8L846.283 385.92V385.16C846.283 382.56 845.123 381.84 841.923 381.84C838.883 381.84 837.643 382.64 837.643 384.92V385.08H831.603V384.96C831.603 380 835.763 376.56 842.363 376.56C849.043 376.56 852.203 380 852.203 385.24V397H846.603V392.4H846.283C845.363 395.52 842.563 397.4 838.123 397.4ZM837.243 391.64C837.243 392.72 838.083 393.16 839.843 393.16C843.923 393.16 846.123 392.2 846.283 389.36L839.323 390.16C837.883 390.28 837.243 390.68 837.243 391.64ZM861.245 397H855.245V376.96H860.805V383.12H861.165C861.685 379.76 864.085 376.56 869.325 376.56C874.805 376.56 877.405 380.08 877.405 384.52V397H871.405V386.52C871.405 383.32 870.085 381.96 866.405 381.96C862.605 381.96 861.245 383.48 861.245 386.88V397ZM886.44 374.92H880.44V370.2H886.44V374.92ZM886.44 397H880.44V376.96H886.44V397ZM910.02 397H888.74V391.88L897.34 385.04L901.54 382.4V382L897.34 382.24H889.34V376.96H909.42V382.12L900.14 389.28L896.34 391.64V392.04L900.14 391.76H910.02V397ZM923.033 397.4C916.353 397.4 911.793 394.12 911.793 387C911.793 380.6 916.313 376.56 922.913 376.56C929.473 376.56 933.833 380 933.833 386.28C933.833 387 933.753 387.52 933.673 388.2H917.353C917.513 391.28 918.953 392.6 922.833 392.6C926.393 392.6 927.633 391.68 927.633 389.96V389.56H933.633V390C933.633 394.36 929.393 397.4 923.033 397.4ZM922.793 381.24C919.233 381.24 917.713 382.44 917.433 385.04H928.073C927.913 382.4 926.313 381.24 922.793 381.24ZM942.377 397H936.377V376.96H941.937V382.28H942.297C942.857 379.04 944.977 376.56 949.017 376.56C953.497 376.56 955.337 379.64 955.337 383.56V386.88H949.337V384.8C949.337 382.6 948.457 381.64 946.017 381.64C943.337 381.64 942.377 382.88 942.377 385.4V397ZM969.682 397H963.682V370.2H971.802L978.082 383.4L980.602 389.68H981.042L983.482 383.4L989.562 370.2H997.722V397H991.722V383.4L991.922 379.2H991.482L989.922 383.4L984.322 395.4H977.042L971.442 383.4L969.882 379.2H969.442L969.682 383.4V397ZM1011.55 397.4C1004.71 397.4 1000.11 393.32 1000.11 387C1000.11 380.6 1004.71 376.56 1011.55 376.56C1018.39 376.56 1022.99 380.6 1022.99 387C1022.99 393.32 1018.39 397.4 1011.55 397.4ZM1011.55 392.08C1015.59 392.08 1017.03 390.52 1017.03 387C1017.03 383.48 1015.59 381.84 1011.55 381.84C1007.47 381.84 1006.07 383.48 1006.07 387C1006.07 390.52 1007.47 392.08 1011.55 392.08ZM1034.4 397.4C1028.16 397.4 1024.72 393.32 1024.72 387C1024.72 380.6 1028.12 376.56 1034.08 376.56C1038.84 376.56 1041.28 378.92 1041.96 382.28H1042.32V370.2H1048.32V397H1042.72V391.44H1042.4C1041.64 395.4 1039 397.4 1034.4 397.4ZM1030.8 387C1030.8 390.64 1032.6 391.92 1036.44 391.92C1040.24 391.92 1042.32 390.6 1042.32 387.12V386.8C1042.32 383.32 1040.28 382.04 1036.44 382.04C1032.6 382.04 1030.8 383.32 1030.8 387ZM1062.13 397.4C1055.45 397.4 1050.89 394.12 1050.89 387C1050.89 380.6 1055.41 376.56 1062.01 376.56C1068.57 376.56 1072.93 380 1072.93 386.28C1072.93 387 1072.85 387.52 1072.77 388.2H1056.45C1056.61 391.28 1058.05 392.6 1061.93 392.6C1065.49 392.6 1066.73 391.68 1066.73 389.96V389.56H1072.73V390C1072.73 394.36 1068.49 397.4 1062.13 397.4ZM1061.89 381.24C1058.33 381.24 1056.81 382.44 1056.53 385.04H1067.17C1067.01 382.4 1065.41 381.24 1061.89 381.24Z" fill="#D548EC"/>
<g filter="url(#filter0_d_714_595)">
<path d="M94.6992 123H348.166C348.166 123 381.138 267.785 324.443 288.863C267.748 309.941 231.373 197.312 231.373 197.312L209.128 213.538C161.549 248.241 94.6992 214.257 94.6992 155.367V123Z" fill="#D548EC"/>
<path d="M275.699 346L22.2321 346C22.2321 346 -10.7392 201.215 45.9556 180.137C102.65 159.059 139.026 271.688 139.026 271.688L161.271 255.462C208.849 220.759 275.699 254.743 275.699 313.633V346Z" fill="#E7A4FD"/>
</g>
<g filter="url(#filter1_d_714_595)">
<circle cx="316.199" cy="321.5" r="24.5" fill="#E7A4FD"/>
</g>
<circle cx="55.1992" cy="147.5" r="24.5" fill="#D548EC"/>
<g filter="url(#filter2_d_714_595)">
<path d="M450.999 141.76H395.499V98.1H450.999V141.76ZM450.999 346H395.499V160.63H450.999V346ZM528.15 346H472.65V160.63H524.08V217.61H527.41C532.22 186.53 554.42 156.93 602.89 156.93C653.58 156.93 677.63 189.49 677.63 230.56V346H622.13V249.06C622.13 219.46 609.92 206.88 575.88 206.88C540.73 206.88 528.15 220.94 528.15 252.39V346ZM828.917 346H783.037C739.747 346 713.477 325.65 713.477 279.03V206.51H684.247V160.63H713.477V124.74H768.977V160.63H828.917V206.51H768.977V272.74C768.977 291.24 776.007 296.05 795.617 296.05H828.917V346ZM897.803 141.76H842.303V98.1H897.803V141.76ZM897.803 346H842.303V160.63H897.803V346ZM973.844 349.7C910.204 349.7 869.504 311.96 869.504 253.5C869.504 194.3 910.204 156.93 973.844 156.93C1033.41 156.93 1074.11 188.75 1074.11 236.85V242.03H1018.98V239.07C1018.98 215.39 1001.59 206.88 972.734 206.88C939.804 206.88 924.634 219.09 924.634 253.5C924.634 287.54 939.804 299.75 972.734 299.75C1001.59 299.75 1018.98 291.24 1018.98 267.56V264.6H1074.11V269.78C1074.11 317.51 1033.41 349.7 973.844 349.7Z" fill="white"/>
<path d="M1018.7 96H1074.7L1074 255H1019.08L1018.7 96Z" fill="white"/>
</g>
<defs>
<filter id="filter0_d_714_595" x="-0.000781059" y="114.3" width="370.4" height="248.4" filterUnits="userSpaceOnUse" color-interpolation-filters="sRGB">
<feFlood flood-opacity="0" result="BackgroundImageFix"/>
<feColorMatrix in="SourceAlpha" type="matrix" values="0 0 0 0 0 0 0 0 0 0 0 0 0 0 0 0 0 0 127 0" result="hardAlpha"/>
<feOffset dy="4"/>
<feGaussianBlur stdDeviation="6.35"/>
<feComposite in2="hardAlpha" operator="out"/>
<feColorMatrix type="matrix" values="0 0 0 0 0.905882 0 0 0 0 0.643137 0 0 0 0 0.992157 0 0 0 1 0"/>
<feBlend mode="normal" in2="BackgroundImageFix" result="effect1_dropShadow_714_595"/>
<feBlend mode="normal" in="SourceGraphic" in2="effect1_dropShadow_714_595" result="shape"/>
</filter>
<filter id="filter1_d_714_595" x="273.099" y="282.4" width="86.2" height="86.2" filterUnits="userSpaceOnUse" color-interpolation-filters="sRGB">
<feFlood flood-opacity="0" result="BackgroundImageFix"/>
<feColorMatrix in="SourceAlpha" type="matrix" values="0 0 0 0 0 0 0 0 0 0 0 0 0 0 0 0 0 0 127 0" result="hardAlpha"/>
<feMorphology radius="1" operator="dilate" in="SourceAlpha" result="effect1_dropShadow_714_595"/>
<feOffset dy="4"/>
<feGaussianBlur stdDeviation="8.8"/>
<feComposite in2="hardAlpha" operator="out"/>
<feColorMatrix type="matrix" values="0 0 0 0 0.905882 0 0 0 0 0.643137 0 0 0 0 0.992157 0 0 0 1 0"/>
<feBlend mode="normal" in2="BackgroundImageFix" result="effect1_dropShadow_714_595"/>
<feBlend mode="normal" in="SourceGraphic" in2="effect1_dropShadow_714_595" result="shape"/>
</filter>
<filter id="filter2_d_714_595" x="382.5" y="86" width="705.199" height="279.7" filterUnits="userSpaceOnUse" color-interpolation-filters="sRGB">
<feFlood flood-opacity="0" result="BackgroundImageFix"/>
<feColorMatrix in="SourceAlpha" type="matrix" values="0 0 0 0 0 0 0 0 0 0 0 0 0 0 0 0 0 0 127 0" result="hardAlpha"/>
<feOffset dy="3"/>
<feGaussianBlur stdDeviation="6.5"/>
<feComposite in2="hardAlpha" operator="out"/>
<feColorMatrix type="matrix" values="0 0 0 0 0.905882 0 0 0 0 0.643137 0 0 0 0 0.992157 0 0 0 1 0"/>
<feBlend mode="normal" in2="BackgroundImageFix" result="effect1_dropShadow_714_595"/>
<feBlend mode="normal" in="SourceGraphic" in2="effect1_dropShadow_714_595" result="shape"/>
</filter>
</defs>
</svg>
