<?xml version="1.0" encoding="UTF-8"?>
<svg id="a" xmlns="http://www.w3.org/2000/svg" version="1.1" viewBox="0 0 512 512">
  <!-- Generator: Adobe Illustrator 29.0.0, SVG Export Plug-In . SVG Version: 2.1.0 Build 186)  -->
  <defs>
    <style>
      .st0 {
        fill: #fff;
      }
    </style>
  </defs>
  <path class="st0" d="M92.7,473.9c-11.7,0-21.2-9.5-21.2-21.1V174.8c0-11.7,9.6-21.2,21.2-21.2h60.8c18.6,0,33.6-15,33.6-33.6v-60.8c0-11.7,9.6-21.2,21.2-21.2h210.9c11.7,0,21.2,9.6,21.2,21.2v177.4c0,11.7-9.6,21.2-21.2,21.2h-60.8c-18.6,0-33.6,15-33.6,33.6v60.6c0,11.7-9.6,21.2-21.2,21.2h-83.1c-18.6,0-33.6,15-33.6,33.6v45.9c0,11.7-9.6,21.2-21.2,21.2h-73ZM220.5,153.4c-18.6,0-33.6,15-33.6,33.6v37.3c0,18.6,15,33.6,33.6,33.6h70.8c18.6,0,33.6-15,33.6-33.6v-37.3c0-18.6-15-33.6-33.6-33.6h-70.8,0Z"/>
</svg>