<svg width="1133" height="409" viewBox="0 0 1133 409" fill="none" xmlns="http://www.w3.org/2000/svg">
<path d="M874.259 397.4C865.539 397.4 861.099 393 861.099 385.8V370.2H867.099V385.36C867.099 389.92 868.819 391.56 874.259 391.56C879.739 391.56 881.419 389.92 881.419 385.36V370.2H887.419V385.8C887.419 393 883.019 397.4 874.259 397.4ZM900.56 397.4C893.8 397.4 890.08 394.76 890.08 390.12V390H896.08V390.36C896.08 392.16 897.2 392.64 900.6 392.64C903.8 392.64 904.56 392.12 904.56 390.92C904.56 389.8 903.96 389.48 901.6 389.16L895.96 388.48C891.96 388.04 889.72 386.24 889.72 382.88C889.72 379.36 892.72 376.56 899.6 376.56C906.16 376.56 909.88 379.04 909.88 383.92V384.04H903.88V383.8C903.88 382.16 903.08 381.32 899.4 381.32C896.4 381.32 895.64 381.84 895.64 383.12C895.64 384.16 896.2 384.6 898.84 384.92L903.12 385.44C908.48 386.04 910.48 387.84 910.48 391.16C910.48 394.92 906.76 397.4 900.56 397.4ZM923.541 397.4C916.861 397.4 912.301 394.12 912.301 387C912.301 380.6 916.821 376.56 923.421 376.56C929.981 376.56 934.341 380 934.341 386.28C934.341 387 934.261 387.52 934.181 388.2H917.861C918.021 391.28 919.461 392.6 923.341 392.6C926.901 392.6 928.141 391.68 928.141 389.96V389.56H934.141V390C934.141 394.36 929.901 397.4 923.541 397.4ZM923.301 381.24C919.741 381.24 918.221 382.44 917.941 385.04H928.581C928.421 382.4 926.821 381.24 923.301 381.24ZM942.885 397H936.885V376.96H942.445V382.28H942.805C943.365 379.04 945.485 376.56 949.525 376.56C954.005 376.56 955.845 379.64 955.845 383.56V386.88H949.845V384.8C949.845 382.6 948.965 381.64 946.525 381.64C943.845 381.64 942.885 382.88 942.885 385.4V397ZM970.19 397H964.19V370.2H972.31L978.59 383.4L981.11 389.68H981.55L983.99 383.4L990.07 370.2H998.23V397H992.23V383.4L992.43 379.2H991.99L990.43 383.4L984.83 395.4H977.55L971.95 383.4L970.39 379.2H969.95L970.19 383.4V397ZM1012.06 397.4C1005.22 397.4 1000.62 393.32 1000.62 387C1000.62 380.6 1005.22 376.56 1012.06 376.56C1018.9 376.56 1023.5 380.6 1023.5 387C1023.5 393.32 1018.9 397.4 1012.06 397.4ZM1012.06 392.08C1016.1 392.08 1017.54 390.52 1017.54 387C1017.54 383.48 1016.1 381.84 1012.06 381.84C1007.98 381.84 1006.58 383.48 1006.58 387C1006.58 390.52 1007.98 392.08 1012.06 392.08ZM1034.91 397.4C1028.67 397.4 1025.23 393.32 1025.23 387C1025.23 380.6 1028.63 376.56 1034.59 376.56C1039.35 376.56 1041.79 378.92 1042.47 382.28H1042.83V370.2H1048.83V397H1043.23V391.44H1042.91C1042.15 395.4 1039.51 397.4 1034.91 397.4ZM1031.31 387C1031.31 390.64 1033.11 391.92 1036.95 391.92C1040.75 391.92 1042.83 390.6 1042.83 387.12V386.8C1042.83 383.32 1040.79 382.04 1036.95 382.04C1033.11 382.04 1031.31 383.32 1031.31 387ZM1062.64 397.4C1055.96 397.4 1051.4 394.12 1051.4 387C1051.4 380.6 1055.92 376.56 1062.52 376.56C1069.08 376.56 1073.44 380 1073.44 386.28C1073.44 387 1073.36 387.52 1073.28 388.2H1056.96C1057.12 391.28 1058.56 392.6 1062.44 392.6C1066 392.6 1067.24 391.68 1067.24 389.96V389.56H1073.24V390C1073.24 394.36 1069 397.4 1062.64 397.4ZM1062.4 381.24C1058.84 381.24 1057.32 382.44 1057.04 385.04H1067.68C1067.52 382.4 1065.92 381.24 1062.4 381.24Z" fill="#D548EC"/>
<g filter="url(#filter0_d_714_612)">
<path d="M94.6992 123H348.166C348.166 123 381.138 267.785 324.443 288.863C267.748 309.941 231.373 197.312 231.373 197.312L209.128 213.538C161.549 248.241 94.6992 214.257 94.6992 155.367V123Z" fill="#D548EC"/>
<path d="M275.699 346L22.2321 346C22.2321 346 -10.7392 201.215 45.9556 180.137C102.65 159.059 139.026 271.687 139.026 271.687L161.271 255.462C208.849 220.759 275.699 254.743 275.699 313.633V346Z" fill="#E7A4FD"/>
</g>
<g filter="url(#filter1_d_714_612)">
<circle cx="316.199" cy="321.5" r="24.5" fill="#E7A4FD"/>
</g>
<circle cx="55.1992" cy="147.5" r="24.5" fill="#D548EC"/>
<g filter="url(#filter2_d_714_612)">
<path d="M450.999 141.76H395.499V98.1H450.999V141.76ZM450.999 346H395.499V160.63H450.999V346ZM528.15 346H472.65V160.63H524.08V217.61H527.41C532.22 186.53 554.42 156.93 602.89 156.93C653.58 156.93 677.63 189.49 677.63 230.56V346H622.13V249.06C622.13 219.46 609.92 206.88 575.88 206.88C540.73 206.88 528.15 220.94 528.15 252.39V346ZM828.917 346H783.037C739.747 346 713.477 325.65 713.477 279.03V206.51H684.247V160.63H713.477V124.74H768.977V160.63H828.917V206.51H768.977V272.74C768.977 291.24 776.007 296.05 795.617 296.05H828.917V346ZM897.803 141.76H842.303V98.1H897.803V141.76ZM897.803 346H842.303V160.63H897.803V346ZM973.844 349.7C910.204 349.7 869.504 311.96 869.504 253.5C869.504 194.3 910.204 156.93 973.844 156.93C1033.41 156.93 1074.11 188.75 1074.11 236.85V242.03H1018.98V239.07C1018.98 215.39 1001.59 206.88 972.734 206.88C939.804 206.88 924.634 219.09 924.634 253.5C924.634 287.54 939.804 299.75 972.734 299.75C1001.59 299.75 1018.98 291.24 1018.98 267.56V264.6H1074.11V269.78C1074.11 317.51 1033.41 349.7 973.844 349.7Z" fill="white"/>
<path d="M1018.7 96H1074.7L1074 255H1019.08L1018.7 96Z" fill="white"/>
</g>
<defs>
<filter id="filter0_d_714_612" x="-0.000781059" y="114.3" width="370.4" height="248.4" filterUnits="userSpaceOnUse" color-interpolation-filters="sRGB">
<feFlood flood-opacity="0" result="BackgroundImageFix"/>
<feColorMatrix in="SourceAlpha" type="matrix" values="0 0 0 0 0 0 0 0 0 0 0 0 0 0 0 0 0 0 127 0" result="hardAlpha"/>
<feOffset dy="4"/>
<feGaussianBlur stdDeviation="6.35"/>
<feComposite in2="hardAlpha" operator="out"/>
<feColorMatrix type="matrix" values="0 0 0 0 0.905882 0 0 0 0 0.643137 0 0 0 0 0.992157 0 0 0 1 0"/>
<feBlend mode="normal" in2="BackgroundImageFix" result="effect1_dropShadow_714_612"/>
<feBlend mode="normal" in="SourceGraphic" in2="effect1_dropShadow_714_612" result="shape"/>
</filter>
<filter id="filter1_d_714_612" x="273.099" y="282.4" width="86.2" height="86.2" filterUnits="userSpaceOnUse" color-interpolation-filters="sRGB">
<feFlood flood-opacity="0" result="BackgroundImageFix"/>
<feColorMatrix in="SourceAlpha" type="matrix" values="0 0 0 0 0 0 0 0 0 0 0 0 0 0 0 0 0 0 127 0" result="hardAlpha"/>
<feMorphology radius="1" operator="dilate" in="SourceAlpha" result="effect1_dropShadow_714_612"/>
<feOffset dy="4"/>
<feGaussianBlur stdDeviation="8.8"/>
<feComposite in2="hardAlpha" operator="out"/>
<feColorMatrix type="matrix" values="0 0 0 0 0.905882 0 0 0 0 0.643137 0 0 0 0 0.992157 0 0 0 1 0"/>
<feBlend mode="normal" in2="BackgroundImageFix" result="effect1_dropShadow_714_612"/>
<feBlend mode="normal" in="SourceGraphic" in2="effect1_dropShadow_714_612" result="shape"/>
</filter>
<filter id="filter2_d_714_612" x="382.5" y="86" width="705.199" height="279.7" filterUnits="userSpaceOnUse" color-interpolation-filters="sRGB">
<feFlood flood-opacity="0" result="BackgroundImageFix"/>
<feColorMatrix in="SourceAlpha" type="matrix" values="0 0 0 0 0 0 0 0 0 0 0 0 0 0 0 0 0 0 127 0" result="hardAlpha"/>
<feOffset dy="3"/>
<feGaussianBlur stdDeviation="6.5"/>
<feComposite in2="hardAlpha" operator="out"/>
<feColorMatrix type="matrix" values="0 0 0 0 0.905882 0 0 0 0 0.643137 0 0 0 0 0.992157 0 0 0 1 0"/>
<feBlend mode="normal" in2="BackgroundImageFix" result="effect1_dropShadow_714_612"/>
<feBlend mode="normal" in="SourceGraphic" in2="effect1_dropShadow_714_612" result="shape"/>
</filter>
</defs>
</svg>
